<?xml version="1.0" encoding="UTF-8"?>
<svg xmlns="http://www.w3.org/2000/svg" xmlns:xlink="http://www.w3.org/1999/xlink" id="Ebene_1" data-name="Ebene 1" viewBox="0 0 508.88 110.12">
  <defs>
    <style>.cls-1{fill:#0a0adc;}.cls-2{fill:#ffdc00;}.cls-3{fill:#f8b700;}.cls-4{fill:#f00028;}.cls-5{fill:#0709b0;}.cls-6{fill:#c00020;}.cls-7{fill:url(#linear-gradient);}.cls-8{fill:url(#linear-gradient-2);}.cls-9{fill:#a81e1c;}.cls-10{fill:#f29100;}.cls-100,.cls-101,.cls-102,.cls-103,.cls-104,.cls-105,.cls-11,.cls-12,.cls-13,.cls-14,.cls-15,.cls-16,.cls-17,.cls-18,.cls-19,.cls-20,.cls-21,.cls-22,.cls-23,.cls-24,.cls-25,.cls-26,.cls-27,.cls-28,.cls-29,.cls-30,.cls-31,.cls-32,.cls-33,.cls-34,.cls-35,.cls-36,.cls-37,.cls-38,.cls-39,.cls-40,.cls-41,.cls-42,.cls-43,.cls-44,.cls-45,.cls-46,.cls-47,.cls-48,.cls-49,.cls-50,.cls-51,.cls-52,.cls-53,.cls-54,.cls-55,.cls-56,.cls-57,.cls-58,.cls-59,.cls-60,.cls-61,.cls-62,.cls-63,.cls-64,.cls-65,.cls-66,.cls-67,.cls-68,.cls-69,.cls-70,.cls-71,.cls-72,.cls-73,.cls-74,.cls-75,.cls-76,.cls-77,.cls-78,.cls-79,.cls-80,.cls-81,.cls-82,.cls-83,.cls-84,.cls-85,.cls-86,.cls-87,.cls-88,.cls-89,.cls-90,.cls-91,.cls-92,.cls-93,.cls-94,.cls-95,.cls-96,.cls-97,.cls-98,.cls-99{fill:none;}.cls-11{stroke:#ffdc00;}.cls-100,.cls-101,.cls-102,.cls-103,.cls-104,.cls-105,.cls-11,.cls-12,.cls-14,.cls-16,.cls-17,.cls-18,.cls-19,.cls-20,.cls-21,.cls-23,.cls-25,.cls-27,.cls-29,.cls-30,.cls-31,.cls-32,.cls-33,.cls-35,.cls-36,.cls-37,.cls-38,.cls-39,.cls-40,.cls-42,.cls-44,.cls-45,.cls-46,.cls-47,.cls-48,.cls-49,.cls-50,.cls-51,.cls-53,.cls-55,.cls-56,.cls-57,.cls-59,.cls-60,.cls-62,.cls-64,.cls-65,.cls-66,.cls-67,.cls-68,.cls-69,.cls-70,.cls-71,.cls-72,.cls-73,.cls-74,.cls-75,.cls-76,.cls-77,.cls-78,.cls-79,.cls-80,.cls-81,.cls-82,.cls-83,.cls-84,.cls-85,.cls-86,.cls-87,.cls-88,.cls-89,.cls-90,.cls-91,.cls-92,.cls-93,.cls-94,.cls-95,.cls-96,.cls-97,.cls-98{stroke-width:0.3px;}.cls-12{stroke:#ffdb00;}.cls-13,.cls-14{stroke:#ffda00;}.cls-13,.cls-15,.cls-22,.cls-26,.cls-34,.cls-43,.cls-54,.cls-63{stroke-width:0.3px;}.cls-15,.cls-16{stroke:#fed900;}.cls-17{stroke:#fed800;}.cls-18{stroke:#fed700;}.cls-19{stroke:#fed600;}.cls-20{stroke:#fed500;}.cls-21,.cls-22{stroke:#fed400;}.cls-23,.cls-24{stroke:#fdd300;}.cls-24,.cls-28,.cls-41,.cls-52,.cls-58,.cls-61,.cls-99{stroke-width:0.3px;}.cls-25,.cls-26{stroke:#fdd200;}.cls-27,.cls-28{stroke:#fdd100;}.cls-29{stroke:#fdd000;}.cls-30{stroke:#fdcf00;}.cls-31{stroke:#fdce00;}.cls-32{stroke:#fccd00;}.cls-33,.cls-34{stroke:#fccc00;}.cls-35{stroke:#fccb00;}.cls-36{stroke:#fcca00;}.cls-37{stroke:#fcc900;}.cls-38{stroke:#fcc800;}.cls-39{stroke:#fbc800;}.cls-40,.cls-41{stroke:#fbc700;}.cls-42,.cls-43{stroke:#fbc600;}.cls-44{stroke:#fbc500;}.cls-45{stroke:#fbc400;}.cls-46{stroke:#fbc300;}.cls-47{stroke:#fbc200;}.cls-48{stroke:#fac200;}.cls-49{stroke:#fac100;}.cls-50{stroke:#fac000;}.cls-51,.cls-52{stroke:#fabf00;}.cls-53,.cls-54{stroke:#fabe00;}.cls-55{stroke:#fabd00;}.cls-56{stroke:#f9bc00;}.cls-57,.cls-58{stroke:#f9bb00;}.cls-59{stroke:#f9ba00;}.cls-60,.cls-61{stroke:#f9b900;}.cls-62,.cls-63{stroke:#f9b800;}.cls-64{stroke:#f9b700;}.cls-65{stroke:#f8b600;}.cls-66{stroke:#f8b500;}.cls-67{stroke:#f8b400;}.cls-68{stroke:#f8b300;}.cls-69{stroke:#f8b200;}.cls-70{stroke:#f8b100;}.cls-71{stroke:#f7b000;}.cls-72{stroke:#f7af00;}.cls-73{stroke:#f7ae00;}.cls-74{stroke:#f7ad00;}.cls-75{stroke:#f7ac00;}.cls-76{stroke:#f7ab00;}.cls-77{stroke:#f6ab00;}.cls-78{stroke:#f6aa00;}.cls-79{stroke:#f6a900;}.cls-80{stroke:#f6a800;}.cls-81{stroke:#f6a700;}.cls-82{stroke:#f6a600;}.cls-83{stroke:#f6a500;}.cls-84{stroke:#f5a500;}.cls-85{stroke:#f5a400;}.cls-86{stroke:#f5a300;}.cls-87{stroke:#f5a200;}.cls-88{stroke:#f5a100;}.cls-89{stroke:#f5a000;}.cls-90{stroke:#f49f00;}.cls-91{stroke:#f49e00;}.cls-92{stroke:#f49d00;}.cls-93{stroke:#f49c00;}.cls-94{stroke:#f49b00;}.cls-95{stroke:#f49a00;}.cls-96{stroke:#f39900;}.cls-97{stroke:#f39800;}.cls-98{stroke:#f39700;}.cls-100,.cls-99{stroke:#f39600;}.cls-101{stroke:#f39500;}.cls-102{stroke:#f39400;}.cls-103{stroke:#f29300;}.cls-104{stroke:#f29200;}.cls-105{stroke:#f29100;}</style>
    <linearGradient id="linear-gradient" x1="74.7" y1="30.4" x2="74.7" y2="52.52" gradientUnits="userSpaceOnUse">
      <stop offset="0" stop-color="#ffe500"></stop>
      <stop offset="1" stop-color="#fab900"></stop>
    </linearGradient>
    <linearGradient id="linear-gradient-2" x1="74.67" y1="57.9" x2="74.67" y2="32.56" gradientUnits="userSpaceOnUse">
      <stop offset="0" stop-color="#ffe500"></stop>
      <stop offset="0.3" stop-color="#ffe100"></stop>
      <stop offset="0.61" stop-color="#fdd400"></stop>
      <stop offset="0.92" stop-color="#fbc000"></stop>
      <stop offset="1" stop-color="#fab900"></stop>
    </linearGradient>
  </defs>
  <path class="cls-1" d="M127.75,60.29V81.57H118.4V28.4h23.66v8.9H127.75V51.39H141v8.9Z"></path>
  <path class="cls-1" d="M147.25,66.22V43.68c0-10.9,5.71-16,15.05-16,10.16,0,15.13,4.74,15.13,15.42v6.53H167.27V43.82c0-5.48-1-7.56-5-7.56-3.86,0-5,2.6-5,8V65.48c0,5.48,1.19,7.93,5.12,7.93,3.78,0,5-2.45,5-7.56V59H177.5v7.48c-.15,11.2-5.56,15.87-15.27,15.87C152.36,82.38,147.25,77.41,147.25,66.22Z"></path>
  <path class="cls-1" d="M199.82,81.57V28.4h14.24c10.45,0,14.16,4,14.16,11.64v4.75c0,5.19-1.63,8.08-6,9.41C227,55.47,229,58.43,229,63.55V69c0,8.15-3.11,12.53-13,12.53Zm9.27-45.38V50.35h4.6c3.85,0,5.19-1.48,5.19-5.41V40.71c0-3.12-1.56-4.52-5.19-4.52Zm0,22.17v14.9H214c3.93,0,5.27-1.26,5.27-5.11V63.47c0-3.63-1.56-5.11-5.64-5.11Z"></path>
  <path class="cls-1" d="M254.62,73.71H243.35l-1.49,7.86H232.3L244.09,28.4h9.56l12.09,53.17h-9.56ZM245,65.33h8L249.5,47.61l-.59-7.42-.59,7.42Z"></path>
  <path class="cls-1" d="M268.78,68.52V61.4h9.94v7c0,3.33,1.18,5.41,5,5.41,3.48,0,4.67-2.15,4.67-5.12V65.92c0-4.45-4.08-6.45-8.45-8.75-5.12-2.67-10.61-5.86-10.61-14.09V40.86c0-8.16,4.6-13.2,14.09-13.2s13.87,4.74,13.87,12.46V45.9h-9.42V40.71c0-3.41-1.26-5-4.52-5s-4.45,2.07-4.45,5.26v1.48c0,4.08,4,5.94,8.3,8.16C292.36,53.24,298,56.5,298,64.81v4.08c0,8.45-4.9,13.49-14.39,13.49C272.64,82.38,268.78,77.56,268.78,68.52Z"></path>
  <path class="cls-1" d="M329.29,81.57H304V28.4h24.84v8.68H313.49V50.27H327V59h-13.5V72.59h15.8Z"></path>
  <path class="cls-1" d="M335.29,81.57V28.4h9.79V72h14.24v9.57Z"></path>
  <path class="cls-1" d="M379.63,81.57v-9.2h7.05v-29H381V36.33c4.3-.66,6.52-3,7.64-7.93h7.49v44h6.74v9.2Z"></path>
  <path class="cls-1" d="M407.44,70.07V63.18a9.74,9.74,0,0,1,5.78-9.35c-3.33-1.48-5-4.52-5-9V39.75c0-7,5-12.09,14.31-12.09s14.53,4.89,14.53,12.09v5c0,4.37-1.78,7.41-5.12,9,3.56,1.56,5.71,4.75,5.71,9.42v6.89c0,7.34-5.26,12.39-15.2,12.39S407.44,77.64,407.44,70.07ZM428,68.66V62.44c0-2.6-1.78-4.75-5.19-4.75h-.52a4.66,4.66,0,0,0-5,4.82v6.23c0,2.89,1.86,4.74,5.27,4.74S428,71.7,428,68.66Zm-.37-23.35V40.86c0-3-1.48-4.75-5-4.75s-5,1.78-5,4.82v4.45c0,2.45,1.34,4.6,4.68,4.6h.51C426.2,50,427.61,47.9,427.61,45.31Z"></path>
  <path class="cls-1" d="M443.11,68.66V63.47h10.08v4.75c0,3.63,1.41,5.56,5.19,5.56,3.93,0,5.27-2.37,5.27-7.49V54.58c-1.41,3.11-4.15,5.56-9,5.56-7.56,0-11.79-4-11.79-12.46V42.27c0-9.42,5.41-14.61,15.13-14.61,10.08,0,15.35,5,15.35,16.46v22.1c0,10.82-5.19,16.24-15.35,16.24C447.93,82.46,443.18,77.49,443.11,68.66Zm20.54-19.94v-5c0-5-1.48-7.56-5.56-7.56-3.64,0-5.34,2.29-5.34,6.3v4.89c0,3.34,1.63,5.27,5.34,5.27A5.59,5.59,0,0,0,463.65,48.72Z"></path>
  <path class="cls-1" d="M478.55,69.26V62.14h9.79v6.3c0,3.34,1.48,4.9,5.19,4.9,3.93,0,5.34-1.78,5.34-5.27V62.81c0-3.34-1.71-4.75-5.56-4.75H489.6V50.42h3.78c3.49,0,5-1.7,5-4.89V41c0-3.12-1.26-4.75-4.89-4.75S488.64,38,488.64,41v5.41H479V40.34c0-7.86,5.26-12.68,14.6-12.68,9.72,0,14.61,4.6,14.61,12v5.19c0,4.53-1.55,7.64-5.34,9.2,3.93,1.41,6,4.45,6,9.49v5.78c0,7.64-4.75,13-15.42,13C483.07,82.38,478.55,77.71,478.55,69.26Z"></path>
  <path d="M99.54,6.21,98.28,0l-.89.39L92.48,2.55C81.39,7.43,71,8.43,58.91,8.43c-13.08,0-23.14-1.81-33.63-6L19.73.16,18.39,6A100.68,100.68,0,0,0,16.5,19.05l-.18,1.8v.09c-.1,1.32-.15,2.91-.15,4.72,0,9.16,1.29,23.9,3.37,31.76,5.66,22.09,18.71,40.25,36.74,51.12l2.6,1.58,2.63-1.55c14.32-8.44,26.08-22.81,33.12-40.48C102.19,49.12,103.89,27.72,99.54,6.21ZM93.9,67.8c-7,17.51-18.62,31.74-32.79,40.09l-2.22,1.31-2.21-1.33C38.83,97.1,25.91,79.11,20.3,57.22,18.26,49.52,17,35,17,25.66c0-1.76.05-3.34.14-4.66v-.07l.18-1.81a100.18,100.18,0,0,1,1.87-13L20.3,1.23,25,3.12c10.6,4.28,20.74,6.1,33.93,6.1,12.23,0,22.68-1,33.89-6l4.9-2.15,1.07,5.25C103.09,27.72,101.4,49,93.9,67.8Z"></path>
  <path class="cls-2" d="M83.08,83.75A90.78,90.78,0,0,0,94.5,59.63a104,104,0,0,0,4.44-29.34,115.56,115.56,0,0,0-2.8-26l0-.14L94.53,7.23c8.81,43.5-9.31,81.45-35.62,96.94v2.49C71.16,99.79,79.24,89.6,83.08,83.75Z"></path>
  <path class="cls-2" d="M92.8,3.27c-11.21,4.94-21.66,6-33.89,6C45.72,9.22,35.58,7.4,25,3.12L20.3,1.23,19.16,6.16a100.18,100.18,0,0,0-1.87,13l-.18,1.81V21C17,22.32,17,23.9,17,25.66c0,9.38,1.3,23.86,3.34,31.56,5.61,21.89,18.53,39.88,36.38,50.65l2.21,1.33v-2.54l-.42-.23A75,75,0,0,1,34,83,86.74,86.74,0,0,1,23.33,60.1c-2.86-9.18-4.21-23.81-4.21-33.64a97.13,97.13,0,0,1,2.7-22.24v0h0a93.27,93.27,0,0,0,16.8,5.33,99.83,99.83,0,0,0,20.28,1.88,107.59,107.59,0,0,0,20.74-1.7A76.52,76.52,0,0,0,96.11,4.18L97.7,1.12Z"></path>
  <path class="cls-3" d="M96.14,4.32a115.56,115.56,0,0,1,2.8,26A104,104,0,0,1,94.5,59.63,90.78,90.78,0,0,1,83.08,83.75c-3.84,5.85-11.92,16-24.18,22.91v2.54l2.22-1.31C75.28,99.54,86.92,85.31,93.9,67.8c7.5-18.83,9.19-40.08,4.87-61.43L97.7,1.12,96.11,4.18Z"></path>
  <path class="cls-3" d="M79.65,9.69a107.59,107.59,0,0,1-20.74,1.7A99.83,99.83,0,0,1,38.63,9.51a92.75,92.75,0,0,1-16.8-5.33h0v0a97.13,97.13,0,0,0-2.7,22.24c0,9.83,1.35,24.46,4.21,33.64A86.74,86.74,0,0,0,34,83a75,75,0,0,0,24.53,23.45l.42.23v-2.49C42.8,94.46,30.08,78,24.48,56.13c-2.26-8.51-3.66-26.72-3.07-34.82a110.64,110.64,0,0,1,2-14.18c12.07,4.87,23,6.41,35.54,6.41s23.7-1.07,35.62-6.31l1.58-3.05A75.9,75.9,0,0,1,79.65,9.69Z"></path>
  <path class="cls-4" d="M58.91,13.54c-12.52,0-23.47-1.54-35.54-6.41a110.64,110.64,0,0,0-2,14.18c-.59,8.1.81,26.31,3.07,34.82,5.6,21.88,18.32,38.33,34.43,48Z"></path>
  <path class="cls-1" d="M58.91,104.17C85.22,88.68,103.34,50.73,94.53,7.23c-11.92,5.24-23.09,6.31-35.62,6.31Z"></path>
  <path class="cls-5" d="M58.91,24.41H75.63V17.47H58.91Zm0,70.52q2,1.35,4.16,2.61l2.24,1.32V90.71l-.75-.42-1.36-.8,1.25-.59c17.22-8.16,21.67-17.08,22.37-23.13a16.54,16.54,0,0,0,.11-1.85,16.19,16.19,0,0,0-5.05-11.68c3.78-4.12,5.18-8.35,5.18-11.92a12.35,12.35,0,0,0-.85-4.59A10.48,10.48,0,0,0,76.3,29.1h-14s0,7.33,0,9.44H58.91v6.93h3.42V88.94c-1.14-.72-2.28-1.5-3.41-2.33ZM75.79,36a3.92,3.92,0,0,1,4.1,3.27A5.44,5.44,0,0,1,80,40.43c0,3.69-3.22,8.65-10.71,12.37V45.47h5.76V38.54H69.29V36Zm.53,21a9.55,9.55,0,0,1,3.49,7,8.06,8.06,0,0,1,0,.85c-.45,4.45-4.4,9.31-10.48,13,0-3.73,0-15.6,0-17C71.06,60,74,58.43,76.32,57.05Z"></path>
  <path class="cls-6" d="M58.91,17.47H48.76V38.55c-3.25.06-8.41.55-12.16,4.3-2.89,2.89-4.36,7.18-4.36,12.74,0,7.34,3,15.23,8.75,22.8A73.94,73.94,0,0,0,58.91,94.93V86.61C48.39,78.89,39.15,67,39.15,55.66c0-3.5.86-6.12,2.54-7.8,2.07-2,5.06-2.36,7.07-2.4V76.21h6.93s0-28,0-30.74h3.19l0-6.93H55.69V24.41h3.2Z"></path>
  <path class="cls-2" d="M52.22,20.94H72.16l2.17-2.16H50.06V74.91l2.16-2.17Z"></path>
  <path class="cls-3" d="M64,91.47l-.09,0A61.37,61.37,0,0,1,45.67,75.54c-5.12-6.74-7.82-13.62-7.82-19.88,0-3.86,1-6.8,2.93-8.72,2.87-2.85,7.06-2.81,9.07-2.79h.21L52.23,42H49.6c-3.56,0-7.34.5-10.32,3.23-2.18,2-3.63,5.66-3.59,10.39.07,6.66,2.91,14,8,20.76a68.67,68.67,0,0,0,17.94,16.2l.33.19Z"></path>
  <polygon class="cls-3" points="61.97 92.78 64.01 96.58 64.01 91.47 61.97 92.78"></polygon>
  <path class="cls-2" d="M50.06,39.84c-2.81,0-8.62,0-12.54,3.93-2.64,2.64-4,6.61-4,11.82,0,7.06,2.94,14.67,8.49,22a74.91,74.91,0,0,0,21.7,18.81l.28.17-2-3.81-.33-.19A68.67,68.67,0,0,1,43.7,76.38c-5.1-6.76-7.94-14.1-8-20.76,0-4.73,1.41-8.41,3.59-10.39C42.26,42.5,46,42,49.6,42h2.63Z"></path>
  <polyline class="cls-2" points="52.23 42.01 71.58 42 73.75 39.84 50.06 39.84"></polyline>
  <path class="cls-3" d="M52.23,42c0,14.35,0,30.74,0,30.74L50.06,74.9h4.33s0-30.37,0-30.74H73.75V39.84L71.59,42Z"></path>
  <path class="cls-3" d="M54.39,39.84h0V23.1H74.33V18.78l-2.17,2.16H52.23V42Z"></path>
  <path class="cls-3" d="M76.07,32.56s-3.18,0,.33,0a7.36,7.36,0,0,1,7.13,7.61c0,4.67-3.15,9.32-6.9,12.34-3.1,2.49-8.25,4.92-10.82,5.38L68,60.15c1.75-.88,5.85-3.07,8.49-4.71L80,52.3c4.23-4.14,5.76-8.44,5.76-12a10.86,10.86,0,0,0-.76-4.1,9.2,9.2,0,0,0-8.7-5.82H63.63l2.19,2.16Z"></path>
  <polygon class="cls-3" points="65.82 42 65.81 84.05 67.99 80.26 67.99 42 65.82 42"></polygon>
  <polygon class="cls-3" points="67.99 39.84 67.99 34.7 65.82 32.56 65.82 42 67.99 39.84"></polygon>
  <path class="cls-3" d="M83.35,63.84c0,3.78-1.43,7.84-6.07,12.44a46.72,46.72,0,0,1-11.47,7.77l-2.18,3.8.26-.13c16.68-7.9,21-16.38,21.64-22.1a14,14,0,0,0,.1-1.7A15,15,0,0,0,80,52.3l-3.43.21S83.35,56.86,83.35,63.84Z"></path>
  <path class="cls-7" d="M80,52.3c4.23-4.14,5.76-8.44,5.76-12a10.86,10.86,0,0,0-.76-4.1,9.2,9.2,0,0,0-8.7-5.82H63.63l2.19,2.16H76.07s-3.18,0,.33,0a7.36,7.36,0,0,1,7.13,7.61c0,4.67-3.15,9.32-6.9,12.34"></path>
  <path class="cls-3" d="M76.57,52.57c-3.1,2.47-8.2,4.87-10.76,5.33L68,60.15c1.75-.88,5.85-3.07,8.49-4.71Z"></path>
  <path class="cls-3" d="M83.35,63.84c0,3.78-1.43,7.84-6.07,12.44a46.72,46.72,0,0,1-11.47,7.77l-2.18,3.8.26-.13c16.68-7.9,21-16.38,21.64-22.1a14,14,0,0,0,.1-1.7A15,15,0,0,0,80,52.3l-3.43.21S83.35,56.86,83.35,63.84Z"></path>
  <path class="cls-2" d="M77.28,76.28c4.64-4.6,6.07-8.66,6.07-12.44,0-7-6.78-11.33-6.78-11.33l-.11,2.93c3.09,2.55,4.65,5.46,4.65,8.64a8.37,8.37,0,0,1,0,1C80.53,70.41,75.53,76.2,68,80.26l-2.18,3.79A46.72,46.72,0,0,0,77.28,76.28Z"></path>
  <path class="cls-8" d="M83.53,40.18a7.36,7.36,0,0,0-7.13-7.61c-3.51,0-.33,0-.33,0H65.82L68,34.7h7.8A5.21,5.21,0,0,1,81.17,39a7.67,7.67,0,0,1,.14,1.45c0,4.53-4,10.35-13.32,14.37L65.81,57.9c2.57-.46,7.72-2.89,10.82-5.38C80.38,49.5,83.53,44.85,83.53,40.18Z"></path>
  <path class="cls-2" d="M63.63,44.17V87.85l2.18-3.8V42Z"></path>
  <path class="cls-2" d="M65.82,42V32.56L63.63,30.4V42Z"></path>
  <path class="cls-9" d="M34.27,41.27h0a19.37,19.37,0,0,0-5.16-10.53l-2.22-2.28A18.23,18.23,0,0,0,21.28,25c-.07,9.06,1.24,23.71,3.2,31.09.08.33.17.65.26,1a15.51,15.51,0,0,0,9.61-14.32c0-.48,0-1-.07-1.43A.25.25,0,0,0,34.27,41.27Z"></path>
  <path class="cls-3" d="M19.13,28a15.07,15.07,0,0,0-2.14.16c.2,9.3,1.44,22,3.31,29.08.08.29.16.57.23.86a14.78,14.78,0,0,0,2.13-.34C20.39,49.05,19.25,36.91,19.13,28Z"></path>
  <path class="cls-10" d="M22.66,57.74a14.67,14.67,0,0,0,2.07-.66c-.08-.32-.17-.63-.25-.95-1.75-6.58-3-19-3.18-28A15.07,15.07,0,0,0,19.16,28h0C19.25,36.91,20.39,49.05,22.66,57.74Z"></path>
  <path class="cls-2" d="M15.48,54.47A15.09,15.09,0,1,0,.39,39.39,15.08,15.08,0,0,0,15.48,54.47Z"></path>
  <path class="cls-11" d="M22.08,25.82c1.53,2.36,1.68,3.74,1.68,6.77A15.08,15.08,0,0,1,8.68,47.67c-3,0-4.83-1.11-7.19-2.64"></path>
  <path class="cls-11" d="M1.49,45.05c2.37,1.55,4.19,2.66,7.23,2.66A15.08,15.08,0,0,0,23.8,32.63c0-3-.16-4.44-1.71-6.8"></path>
  <path class="cls-12" d="M1.5,45.06c2.37,1.57,4.21,2.7,7.27,2.7A15.08,15.08,0,0,0,23.85,32.68c0-3.06-.18-4.48-1.75-6.85"></path>
  <path class="cls-12" d="M1.51,45.08c2.37,1.58,4.23,2.72,7.3,2.72A15.08,15.08,0,0,0,23.89,32.72c0-3.07-.19-4.51-1.78-6.88"></path>
  <path class="cls-13" d="M1.52,45.1c2.37,1.6,4.25,2.75,7.34,2.75A15.08,15.08,0,0,0,23.94,32.77c0-3.09-.22-4.55-1.82-6.92"></path>
  <path class="cls-14" d="M1.53,45.11C3.9,46.73,5.8,47.89,8.9,47.89A15.08,15.08,0,0,0,24,32.81c0-3.1-.23-4.59-1.85-7"></path>
  <path class="cls-15" d="M1.54,45.13C3.91,46.77,5.83,47.94,9,47.94A15.08,15.08,0,0,0,24,32.86c0-3.12-.25-4.63-1.89-7"></path>
  <path class="cls-16" d="M1.55,45.15C3.92,46.8,5.86,48,9,48A15.09,15.09,0,0,0,24.08,32.9c0-3.13-.27-4.66-1.92-7"></path>
  <path class="cls-17" d="M1.56,45.17C3.93,46.83,5.89,48,9,48A15.08,15.08,0,0,0,24.12,33c0-3.15-.29-4.7-1.95-7.08"></path>
  <path class="cls-17" d="M1.57,45.18c2.37,1.69,4.35,2.9,7.51,2.9A15.1,15.1,0,0,0,24.17,33c0-3.16-.31-4.73-2-7.11"></path>
  <path class="cls-18" d="M1.57,45.2C4,46.9,6,48.12,9.13,48.12A15.08,15.08,0,0,0,24.21,33c0-3.18-.32-4.78-2-7.16"></path>
  <path class="cls-18" d="M1.58,45.22c2.39,1.72,4.4,3,7.59,3A15.1,15.1,0,0,0,24.26,33.08c0-3.19-.34-4.81-2.06-7.19"></path>
  <path class="cls-19" d="M1.59,45.23C4,47,6,48.21,9.22,48.21A15.08,15.08,0,0,0,24.3,33.13c0-3.21-.35-4.85-2.09-7.24"></path>
  <path class="cls-19" d="M1.6,45.25C4,47,6,48.26,9.26,48.26A15.1,15.1,0,0,0,24.35,33.17c0-3.22-.38-4.88-2.13-7.27"></path>
  <path class="cls-20" d="M1.61,45.27c2.39,1.77,4.46,3,7.7,3A15.08,15.08,0,0,0,24.39,33.22c0-3.24-.39-4.92-2.16-7.31"></path>
  <path class="cls-20" d="M1.62,45.28C4,47.07,6.1,48.35,9.35,48.35A15.1,15.1,0,0,0,24.44,33.26c0-3.25-.41-4.95-2.2-7.35"></path>
  <path class="cls-21" d="M1.63,45.3C4,47.11,6.13,48.39,9.4,48.39A15.08,15.08,0,0,0,24.48,33.31c0-3.27-.42-5-2.23-7.39"></path>
  <path class="cls-22" d="M1.64,45.32c2.39,1.82,4.52,3.12,7.8,3.12A15.1,15.1,0,0,0,24.53,33.35c0-3.28-.44-5-2.27-7.43"></path>
  <path class="cls-23" d="M1.64,45.33c2.4,1.85,4.55,3.15,7.85,3.15A15.08,15.08,0,0,0,24.57,33.4c0-3.3-.46-5.07-2.3-7.47"></path>
  <path class="cls-24" d="M1.65,45.35c2.4,1.86,4.57,3.18,7.88,3.18A15.1,15.1,0,0,0,24.62,33.44c0-3.31-.48-5.1-2.34-7.5"></path>
  <path class="cls-25" d="M1.66,45.37c2.41,1.88,4.59,3.2,7.92,3.2A15.08,15.08,0,0,0,24.66,33.49c0-3.33-.49-5.14-2.37-7.55"></path>
  <path class="cls-26" d="M1.67,45.39c2.41,1.89,4.61,3.23,8,3.23A15.1,15.1,0,0,0,24.71,33.53c0-3.34-.51-5.18-2.41-7.58"></path>
  <path class="cls-27" d="M1.68,45.4c2.41,1.91,4.63,3.26,8,3.26A15.08,15.08,0,0,0,24.75,33.58c0-3.36-.53-5.22-2.44-7.63"></path>
  <path class="cls-28" d="M1.69,45.42c2.41,1.93,4.65,3.29,8,3.29A15.1,15.1,0,0,0,24.8,33.62c0-3.37-.55-5.25-2.48-7.66"></path>
  <path class="cls-29" d="M1.7,45.44c2.41,1.94,4.67,3.31,8.06,3.31A15.08,15.08,0,0,0,24.84,33.67c0-3.39-.56-5.29-2.51-7.7"></path>
  <path class="cls-29" d="M1.71,45.45c2.41,2,4.69,3.35,8.09,3.35A15.1,15.1,0,0,0,24.89,33.71c0-3.4-.58-5.32-2.55-7.74"></path>
  <path class="cls-30" d="M1.72,45.47c2.41,2,4.71,3.37,8.13,3.37A15.08,15.08,0,0,0,24.93,33.76c0-3.42-.59-5.36-2.57-7.78"></path>
  <path class="cls-30" d="M1.72,45.49c2.42,2,4.74,3.4,8.17,3.4A15.1,15.1,0,0,0,25,33.8c0-3.43-.62-5.4-2.61-7.82"></path>
  <path class="cls-31" d="M1.73,45.5c2.42,2,4.76,3.43,8.21,3.43A15.08,15.08,0,0,0,25,33.85c0-3.45-.63-5.44-2.64-7.86"></path>
  <path class="cls-31" d="M1.74,45.52C4.16,47.55,6.52,49,10,49A15.1,15.1,0,0,0,25.07,33.89c0-3.46-.65-5.47-2.68-7.89"></path>
  <path class="cls-32" d="M1.75,45.54C4.18,47.59,6.55,49,10,49A15.08,15.08,0,0,0,25.11,33.94c0-3.48-.66-5.51-2.71-7.94"></path>
  <path class="cls-32" d="M1.76,45.55c2.43,2.07,4.82,3.52,8.31,3.52A15.1,15.1,0,0,0,25.16,34c0-3.49-.68-5.54-2.75-8"></path>
  <path class="cls-33" d="M1.77,45.57c2.43,2.09,4.84,3.54,8.35,3.54A15.08,15.08,0,0,0,25.2,34c0-3.51-.7-5.59-2.78-8"></path>
  <path class="cls-34" d="M1.78,45.59c2.43,2.1,4.86,3.57,8.38,3.57A15.1,15.1,0,0,0,25.25,34.07a10.78,10.78,0,0,0-2.82-8"></path>
  <path class="cls-35" d="M1.79,45.61c2.43,2.11,4.88,3.59,8.42,3.59A15.08,15.08,0,0,0,25.29,34.12c0-3.54-.73-5.66-2.85-8.09"></path>
  <path class="cls-35" d="M1.79,45.62c2.44,2.14,4.91,3.63,8.46,3.63A15.1,15.1,0,0,0,25.34,34.16,10.83,10.83,0,0,0,22.45,26"></path>
  <path class="cls-36" d="M1.8,45.64c2.44,2.15,4.93,3.65,8.5,3.65A15.08,15.08,0,0,0,25.38,34.21,10.88,10.88,0,0,0,22.46,26"></path>
  <path class="cls-36" d="M1.81,45.66c2.44,2.17,4.95,3.68,8.53,3.68A15.1,15.1,0,0,0,25.43,34.25a10.92,10.92,0,0,0-3-8.21"></path>
  <path class="cls-37" d="M1.82,45.67c2.44,2.19,5,3.71,8.57,3.71A15.08,15.08,0,0,0,25.47,34.3a10.91,10.91,0,0,0-3-8.25"></path>
  <path class="cls-37" d="M1.83,45.69c2.44,2.21,5,3.74,8.6,3.74A15.1,15.1,0,0,0,25.52,34.34a10.92,10.92,0,0,0-3-8.28"></path>
  <path class="cls-38" d="M1.84,45.71c2.45,2.22,5,3.76,8.64,3.76A15.08,15.08,0,0,0,25.56,34.39a11,11,0,0,0-3.06-8.33"></path>
  <path class="cls-39" d="M1.85,45.72c2.45,2.24,5,3.8,8.67,3.8A15.1,15.1,0,0,0,25.61,34.43a11,11,0,0,0-3.1-8.36"></path>
  <path class="cls-40" d="M1.86,45.74c2.45,2.26,5.05,3.82,8.71,3.82A15.08,15.08,0,0,0,25.65,34.48a11,11,0,0,0-3.13-8.41"></path>
  <path class="cls-41" d="M1.87,45.76c2.45,2.27,5.07,3.85,8.74,3.85A15.1,15.1,0,0,0,25.7,34.52a11,11,0,0,0-3.17-8.44"></path>
  <path class="cls-42" d="M1.87,45.77c2.46,2.3,5.1,3.88,8.79,3.88A15.08,15.08,0,0,0,25.74,34.57a11.08,11.08,0,0,0-3.19-8.48"></path>
  <path class="cls-43" d="M1.88,45.79C4.34,48.1,7,49.7,10.7,49.7A15.1,15.1,0,0,0,25.79,34.61a11.13,11.13,0,0,0-3.23-8.52"></path>
  <path class="cls-44" d="M1.89,45.81c2.46,2.32,5.14,3.93,8.86,3.93A15.08,15.08,0,0,0,25.83,34.66a11.17,11.17,0,0,0-3.26-8.56"></path>
  <path class="cls-44" d="M1.9,45.82c2.46,2.35,5.16,4,8.89,4A15.1,15.1,0,0,0,25.88,34.7a11.22,11.22,0,0,0-3.3-8.6"></path>
  <path class="cls-45" d="M1.91,45.84c2.46,2.36,5.18,4,8.93,4A15.08,15.08,0,0,0,25.92,34.75a11.21,11.21,0,0,0-3.33-8.64"></path>
  <path class="cls-45" d="M1.92,45.86c2.46,2.38,5.2,4,9,4A15.1,15.1,0,0,0,26,34.79a11.22,11.22,0,0,0-3.37-8.67"></path>
  <path class="cls-46" d="M1.93,45.88c2.47,2.39,5.22,4,9,4A15.08,15.08,0,0,0,26,34.84a11.3,11.3,0,0,0-3.4-8.72"></path>
  <path class="cls-46" d="M1.94,45.89C4.41,48.31,7.18,50,11,50A15.1,15.1,0,0,0,26.06,34.88a11.31,11.31,0,0,0-3.44-8.75"></path>
  <path class="cls-47" d="M1.94,45.91C4.42,48.34,7.21,50,11,50A15.08,15.08,0,0,0,26.1,34.93a11.36,11.36,0,0,0-3.47-8.8"></path>
  <path class="cls-48" d="M2,45.93c2.48,2.44,5.29,4.13,9.11,4.13A15.1,15.1,0,0,0,26.15,35a11.37,11.37,0,0,0-3.51-8.83"></path>
  <path class="cls-49" d="M2,45.94c2.48,2.47,5.31,4.16,9.15,4.16A15.08,15.08,0,0,0,26.19,35a11.37,11.37,0,0,0-3.54-8.87"></path>
  <path class="cls-49" d="M2,46c2.48,2.48,5.33,4.19,9.18,4.19A15.1,15.1,0,0,0,26.24,35.06a11.45,11.45,0,0,0-3.58-8.91"></path>
  <path class="cls-50" d="M2,46c2.48,2.5,5.35,4.21,9.22,4.21A15.08,15.08,0,0,0,26.28,35.11a11.46,11.46,0,0,0-3.61-8.95"></path>
  <path class="cls-50" d="M2,46c2.48,2.52,5.37,4.25,9.25,4.25A15.1,15.1,0,0,0,26.33,35.15a11.51,11.51,0,0,0-3.65-9"></path>
  <path class="cls-51" d="M2,46a12.55,12.55,0,0,0,9.29,4.27A15.08,15.08,0,0,0,26.37,35.2a11.52,11.52,0,0,0-3.68-9"></path>
  <path class="cls-52" d="M2,46a12.59,12.59,0,0,0,9.32,4.3A15.1,15.1,0,0,0,26.42,35.24a11.52,11.52,0,0,0-3.72-9.06"></path>
  <path class="cls-53" d="M2,46a12.62,12.62,0,0,0,9.36,4.33A15.08,15.08,0,0,0,26.46,35.29a11.6,11.6,0,0,0-3.75-9.11"></path>
  <path class="cls-54" d="M2,46.06a12.67,12.67,0,0,0,9.41,4.36A15.09,15.09,0,0,0,26.51,35.33a11.62,11.62,0,0,0-3.79-9.14"></path>
  <path class="cls-55" d="M2,46.08a12.7,12.7,0,0,0,9.44,4.38A15.08,15.08,0,0,0,26.55,35.38a11.66,11.66,0,0,0-3.82-9.19"></path>
  <path class="cls-55" d="M2,46.1a12.71,12.71,0,0,0,9.48,4.41A15.09,15.09,0,0,0,26.6,35.42a11.7,11.7,0,0,0-3.85-9.22"></path>
  <path class="cls-56" d="M2.05,46.11a12.71,12.71,0,0,0,9.51,4.44A15.08,15.08,0,0,0,26.64,35.47a11.75,11.75,0,0,0-3.88-9.26"></path>
  <path class="cls-56" d="M2.06,46.13a12.76,12.76,0,0,0,9.55,4.47A15.09,15.09,0,0,0,26.69,35.51a11.79,11.79,0,0,0-3.92-9.3"></path>
  <path class="cls-57" d="M2.07,46.15a12.75,12.75,0,0,0,9.58,4.49A15.08,15.08,0,0,0,26.73,35.56a11.8,11.8,0,0,0-3.95-9.34"></path>
  <path class="cls-58" d="M2.08,46.16a12.77,12.77,0,0,0,9.62,4.53A15.09,15.09,0,0,0,26.78,35.6a11.85,11.85,0,0,0-4-9.38"></path>
  <path class="cls-59" d="M2.09,46.18a12.77,12.77,0,0,0,9.65,4.55A15.08,15.08,0,0,0,26.82,35.65a11.86,11.86,0,0,0-4-9.42"></path>
  <path class="cls-59" d="M2.09,46.2a12.85,12.85,0,0,0,9.7,4.58A15.09,15.09,0,0,0,26.87,35.69a11.91,11.91,0,0,0-4.06-9.45"></path>
  <path class="cls-60" d="M2.1,46.21a12.84,12.84,0,0,0,9.73,4.61A15.08,15.08,0,0,0,26.91,35.74a12,12,0,0,0-4.09-9.5"></path>
  <path class="cls-61" d="M2.11,46.23a12.89,12.89,0,0,0,9.77,4.64A15.09,15.09,0,0,0,27,35.78a12,12,0,0,0-4.13-9.53"></path>
  <path class="cls-62" d="M2.12,46.25a12.92,12.92,0,0,0,9.8,4.66A15.08,15.08,0,0,0,27,35.83a12,12,0,0,0-4.16-9.58"></path>
  <path class="cls-63" d="M2.13,46.26A12.91,12.91,0,0,0,12,51,15.09,15.09,0,0,0,27.05,35.87a12,12,0,0,0-4.2-9.61"></path>
  <path class="cls-64" d="M2.14,46.28A12.94,12.94,0,0,0,12,51,15.08,15.08,0,0,0,27.09,35.92a12.08,12.08,0,0,0-4.23-9.65"></path>
  <path class="cls-64" d="M2.15,46.3a13,13,0,0,0,9.91,4.75A15.09,15.09,0,0,0,27.14,36a12.13,12.13,0,0,0-4.27-9.69"></path>
  <path class="cls-65" d="M2.16,46.32a13,13,0,0,0,9.94,4.77A15.08,15.08,0,0,0,27.18,36a12.13,12.13,0,0,0-4.3-9.73"></path>
  <path class="cls-65" d="M2.17,46.33a13,13,0,0,0,10,4.81A15.09,15.09,0,0,0,27.23,36.05a12.18,12.18,0,0,0-4.34-9.77"></path>
  <path class="cls-66" d="M2.17,46.35a13,13,0,0,0,10,4.83A15.08,15.08,0,0,0,27.27,36.1a12.23,12.23,0,0,0-4.37-9.81"></path>
  <path class="cls-66" d="M2.18,46.37a13.09,13.09,0,0,0,10.06,4.86A15.09,15.09,0,0,0,27.32,36.14a12.25,12.25,0,0,0-4.41-9.84"></path>
  <path class="cls-67" d="M2.19,46.38a13.08,13.08,0,0,0,10.09,4.89A15.08,15.08,0,0,0,27.36,36.19a12.3,12.3,0,0,0-4.44-9.89"></path>
  <path class="cls-67" d="M2.2,46.4a13.13,13.13,0,0,0,10.13,4.92A15.09,15.09,0,0,0,27.41,36.23a12.32,12.32,0,0,0-4.47-9.92"></path>
  <path class="cls-68" d="M2.21,46.42a13.13,13.13,0,0,0,10.16,4.94A15.08,15.08,0,0,0,27.45,36.28a12.37,12.37,0,0,0-4.5-10"></path>
  <path class="cls-68" d="M2.22,46.43a13.15,13.15,0,0,0,10.2,5A15.09,15.09,0,0,0,27.5,36.32a12.42,12.42,0,0,0-4.54-10"></path>
  <path class="cls-69" d="M2.23,46.45a13.18,13.18,0,0,0,10.23,5A15.08,15.08,0,0,0,27.54,36.37a12.44,12.44,0,0,0-4.57-10"></path>
  <path class="cls-69" d="M2.24,46.47a13.2,13.2,0,0,0,10.27,5A15.08,15.08,0,0,0,27.59,36.41,12.49,12.49,0,0,0,23,26.33"></path>
  <path class="cls-70" d="M2.24,46.48a13.25,13.25,0,0,0,10.31,5.06A15.08,15.08,0,0,0,27.63,36.46,12.51,12.51,0,0,0,23,26.34"></path>
  <path class="cls-70" d="M2.25,46.5A13.26,13.26,0,0,0,12.6,51.59,15.08,15.08,0,0,0,27.68,36.5,12.55,12.55,0,0,0,23,26.34"></path>
  <path class="cls-71" d="M2.26,46.52a13.29,13.29,0,0,0,10.38,5.11A15.08,15.08,0,0,0,27.72,36.55,12.6,12.6,0,0,0,23,26.35"></path>
  <path class="cls-71" d="M2.27,46.53a13.29,13.29,0,0,0,10.42,5.15A15.08,15.08,0,0,0,27.77,36.59,12.62,12.62,0,0,0,23,26.36"></path>
  <path class="cls-72" d="M2.28,46.55a13.34,13.34,0,0,0,10.45,5.17A15.08,15.08,0,0,0,27.81,36.64,12.67,12.67,0,0,0,23,26.36"></path>
  <path class="cls-72" d="M2.29,46.57a13.38,13.38,0,0,0,10.49,5.2A15.08,15.08,0,0,0,27.86,36.68,12.69,12.69,0,0,0,23,26.37"></path>
  <path class="cls-73" d="M2.3,46.59a13.38,13.38,0,0,0,10.52,5.22A15.08,15.08,0,0,0,27.9,36.73a12.75,12.75,0,0,0-4.85-10.36"></path>
  <path class="cls-73" d="M2.31,46.6a13.41,13.41,0,0,0,10.56,5.26A15.08,15.08,0,0,0,28,36.77a12.77,12.77,0,0,0-4.89-10.39"></path>
  <path class="cls-74" d="M2.32,46.62A13.41,13.41,0,0,0,12.91,51.9,15.08,15.08,0,0,0,28,36.82a12.79,12.79,0,0,0-4.92-10.43"></path>
  <path class="cls-74" d="M2.32,46.64A13.49,13.49,0,0,0,13,52,15.08,15.08,0,0,0,28,36.86a12.85,12.85,0,0,0-5-10.47"></path>
  <path class="cls-75" d="M2.33,46.65A13.48,13.48,0,0,0,13,52,15.08,15.08,0,0,0,28.08,36.91a12.87,12.87,0,0,0-5-10.51"></path>
  <path class="cls-75" d="M2.34,46.67A13.52,13.52,0,0,0,13.05,52,15.08,15.08,0,0,0,28.13,37a13,13,0,0,0-5-10.55"></path>
  <path class="cls-76" d="M2.35,46.69a13.56,13.56,0,0,0,10.74,5.39A15.08,15.08,0,0,0,28.17,37a13,13,0,0,0-5.06-10.59"></path>
  <path class="cls-77" d="M2.36,46.7a13.55,13.55,0,0,0,10.78,5.43A15.08,15.08,0,0,0,28.22,37.05a13,13,0,0,0-5.1-10.63"></path>
  <path class="cls-78" d="M2.37,46.72a13.6,13.6,0,0,0,10.81,5.45A15.08,15.08,0,0,0,28.26,37.09a13,13,0,0,0-5.12-10.67"></path>
  <path class="cls-78" d="M2.38,46.74a13.62,13.62,0,0,0,10.85,5.48A15.08,15.08,0,0,0,28.31,37.14a13.06,13.06,0,0,0-5.16-10.71"></path>
  <path class="cls-79" d="M2.39,46.75a13.62,13.62,0,0,0,10.88,5.51A15.08,15.08,0,0,0,28.35,37.18a13.13,13.13,0,0,0-5.19-10.75"></path>
  <path class="cls-79" d="M2.39,46.77a13.7,13.7,0,0,0,10.93,5.54A15.08,15.08,0,0,0,28.4,37.23a13.15,13.15,0,0,0-5.23-10.79"></path>
  <path class="cls-80" d="M2.4,46.79a13.7,13.7,0,0,0,11,5.56A15.08,15.08,0,0,0,28.44,37.27a13.16,13.16,0,0,0-5.26-10.82"></path>
  <path class="cls-80" d="M2.41,46.81a13.75,13.75,0,0,0,11,5.59A15.08,15.08,0,0,0,28.49,37.32a13.22,13.22,0,0,0-5.3-10.87"></path>
  <path class="cls-81" d="M2.42,46.82a13.73,13.73,0,0,0,11,5.62A15.08,15.08,0,0,0,28.53,37.36a13.26,13.26,0,0,0-5.33-10.9"></path>
  <path class="cls-81" d="M2.43,46.84A13.78,13.78,0,0,0,13.5,52.49,15.08,15.08,0,0,0,28.58,37.41a13.33,13.33,0,0,0-5.37-10.95"></path>
  <path class="cls-82" d="M2.44,46.86a13.79,13.79,0,0,0,11.1,5.67A15.08,15.08,0,0,0,28.62,37.45a13.33,13.33,0,0,0-5.4-11"></path>
  <path class="cls-82" d="M2.45,46.87a13.81,13.81,0,0,0,11.14,5.71A15.08,15.08,0,0,0,28.67,37.5a13.35,13.35,0,0,0-5.44-11"></path>
  <path class="cls-83" d="M2.46,46.89a13.86,13.86,0,0,0,11.17,5.73A15.08,15.08,0,0,0,28.71,37.54a13.4,13.4,0,0,0-5.47-11.06"></path>
  <path class="cls-84" d="M2.46,46.91a13.91,13.91,0,0,0,11.22,5.76A15.08,15.08,0,0,0,28.76,37.59a13.46,13.46,0,0,0-5.51-11.1"></path>
  <path class="cls-85" d="M2.47,46.92a13.93,13.93,0,0,0,11.25,5.79A15.08,15.08,0,0,0,28.8,37.63a13.5,13.5,0,0,0-5.54-11.14"></path>
  <path class="cls-85" d="M2.48,46.94a14,14,0,0,0,11.29,5.82A15.08,15.08,0,0,0,28.85,37.68,13.53,13.53,0,0,0,23.27,26.5"></path>
  <path class="cls-86" d="M2.49,47A14,14,0,0,0,13.81,52.8,15.08,15.08,0,0,0,28.89,37.72a13.54,13.54,0,0,0-5.61-11.21"></path>
  <path class="cls-86" d="M2.5,47a14,14,0,0,0,11.36,5.88A15.08,15.08,0,0,0,28.94,37.77a13.62,13.62,0,0,0-5.65-11.26"></path>
  <path class="cls-87" d="M2.51,47a14,14,0,0,0,11.39,5.9A15.08,15.08,0,0,0,29,37.81,13.64,13.64,0,0,0,23.3,26.52"></path>
  <path class="cls-87" d="M2.52,47A14.06,14.06,0,0,0,14,52.94,15.08,15.08,0,0,0,29,37.86a13.7,13.7,0,0,0-5.72-11.34"></path>
  <path class="cls-88" d="M2.53,47A14.07,14.07,0,0,0,14,53,15.08,15.08,0,0,0,29.07,37.9a13.73,13.73,0,0,0-5.74-11.37"></path>
  <path class="cls-88" d="M2.54,47A14.1,14.1,0,0,0,14,53,15.08,15.08,0,0,0,29.12,38a13.75,13.75,0,0,0-5.78-11.41"></path>
  <path class="cls-89" d="M2.54,47.06a14.15,14.15,0,0,0,11.54,6A15.08,15.08,0,0,0,29.16,38a13.82,13.82,0,0,0-5.81-11.45"></path>
  <path class="cls-89" d="M2.55,47.08a14.2,14.2,0,0,0,11.58,6A15.08,15.08,0,0,0,29.21,38a13.85,13.85,0,0,0-5.85-11.49"></path>
  <path class="cls-90" d="M2.56,47.09a14.21,14.21,0,0,0,11.61,6.07A15.08,15.08,0,0,0,29.25,38.08a13.9,13.9,0,0,0-5.88-11.53"></path>
  <path class="cls-90" d="M2.57,47.11a14.24,14.24,0,0,0,11.65,6.1A15.08,15.08,0,0,0,29.3,38.13a13.93,13.93,0,0,0-5.92-11.57"></path>
  <path class="cls-91" d="M2.58,47.13a14.27,14.27,0,0,0,11.68,6.12A15.08,15.08,0,0,0,29.34,38.17a14,14,0,0,0-5.95-11.6"></path>
  <path class="cls-91" d="M2.59,47.14A14.27,14.27,0,0,0,14.31,53.3,15.08,15.08,0,0,0,29.39,38.22a14,14,0,0,0-6-11.65"></path>
  <path class="cls-92" d="M2.6,47.16a14.31,14.31,0,0,0,11.75,6.18A15.08,15.08,0,0,0,29.43,38.26a14,14,0,0,0-6-11.68"></path>
  <path class="cls-92" d="M2.61,47.18A14.33,14.33,0,0,0,14.4,53.39,15.08,15.08,0,0,0,29.48,38.31a14.1,14.1,0,0,0-6.06-11.73"></path>
  <path class="cls-93" d="M2.61,47.19a14.38,14.38,0,0,0,11.83,6.24A15.08,15.08,0,0,0,29.52,38.35a14.12,14.12,0,0,0-6.09-11.76"></path>
  <path class="cls-93" d="M2.62,47.21a14.42,14.42,0,0,0,11.87,6.27A15.08,15.08,0,0,0,29.57,38.4a14.17,14.17,0,0,0-6.13-11.8"></path>
  <path class="cls-94" d="M2.63,47.23a14.44,14.44,0,0,0,11.9,6.29A15.09,15.09,0,0,0,29.62,38.44,14.22,14.22,0,0,0,23.45,26.6"></path>
  <path class="cls-94" d="M2.64,47.24a14.47,14.47,0,0,0,11.94,6.33A15.08,15.08,0,0,0,29.66,38.49a14.24,14.24,0,0,0-6.2-11.88"></path>
  <path class="cls-95" d="M2.65,47.26a14.48,14.48,0,0,0,12,6.35A15.09,15.09,0,0,0,29.71,38.53a14.3,14.3,0,0,0-6.24-11.92"></path>
  <path class="cls-95" d="M2.66,47.28a14.53,14.53,0,0,0,12,6.38A15.08,15.08,0,0,0,29.75,38.58a14.32,14.32,0,0,0-6.27-12"></path>
  <path class="cls-96" d="M2.67,47.3a14.55,14.55,0,0,0,12,6.41A15.1,15.1,0,0,0,29.8,38.62a14.37,14.37,0,0,0-6.31-12"></path>
  <path class="cls-96" d="M2.68,47.31a14.57,14.57,0,0,0,12.08,6.44A15.08,15.08,0,0,0,29.84,38.67a14.42,14.42,0,0,0-6.34-12"></path>
  <path class="cls-97" d="M2.69,47.33A14.61,14.61,0,0,0,14.8,53.8,15.1,15.1,0,0,0,29.89,38.71a14.44,14.44,0,0,0-6.38-12.07"></path>
  <path class="cls-97" d="M2.69,47.35a14.66,14.66,0,0,0,12.16,6.49A15.08,15.08,0,0,0,29.93,38.76a14.5,14.5,0,0,0-6.4-12.12"></path>
  <path class="cls-98" d="M2.7,47.36a14.68,14.68,0,0,0,12.19,6.53A15.1,15.1,0,0,0,30,38.8a14.53,14.53,0,0,0-6.44-12.15"></path>
  <path class="cls-98" d="M2.71,47.38a14.7,14.7,0,0,0,12.23,6.55A15.08,15.08,0,0,0,30,38.85a14.58,14.58,0,0,0-6.47-12.19"></path>
  <path class="cls-99" d="M2.72,47.4A14.75,14.75,0,0,0,15,54,15.1,15.1,0,0,0,30.07,38.89a14.64,14.64,0,0,0-6.51-12.23"></path>
  <path class="cls-100" d="M2.73,47.41A14.77,14.77,0,0,0,15,54,15.08,15.08,0,0,0,30.11,38.94a14.64,14.64,0,0,0-6.54-12.27"></path>
  <path class="cls-101" d="M2.74,47.43a14.79,14.79,0,0,0,12.33,6.64A15.1,15.1,0,0,0,30.16,39a14.7,14.7,0,0,0-6.58-12.31"></path>
  <path class="cls-101" d="M2.75,47.45a14.83,14.83,0,0,0,12.37,6.66A15.08,15.08,0,0,0,30.2,39a14.75,14.75,0,0,0-6.61-12.35"></path>
  <path class="cls-102" d="M2.76,47.46a14.83,14.83,0,0,0,12.4,6.7A15.1,15.1,0,0,0,30.25,39.07,14.78,14.78,0,0,0,23.6,26.69"></path>
  <path class="cls-102" d="M2.76,47.48A14.9,14.9,0,0,0,15.21,54.2,15.08,15.08,0,0,0,30.29,39.12a14.83,14.83,0,0,0-6.68-12.43"></path>
  <path class="cls-103" d="M2.77,47.5a14.92,14.92,0,0,0,12.48,6.75A15.1,15.1,0,0,0,30.34,39.16,14.86,14.86,0,0,0,23.62,26.7"></path>
  <path class="cls-103" d="M2.78,47.52a15,15,0,0,0,27.6-8.31A14.9,14.9,0,0,0,23.63,26.7"></path>
  <path class="cls-104" d="M2.79,47.53A15,15,0,1,0,23.64,26.71"></path>
  <path class="cls-104" d="M2.8,47.55A15.06,15.06,0,1,0,23.65,26.72"></path>
  <path class="cls-105" d="M2.81,47.57A15.07,15.07,0,1,0,23.66,26.72"></path>
  <path class="cls-105" d="M2.82,47.58A15.08,15.08,0,1,0,23.67,26.73"></path>
  <path d="M15.48,23.91A15.48,15.48,0,1,0,31,39.39,15.48,15.48,0,0,0,15.48,23.91Zm11.93,6.93A14.54,14.54,0,0,1,29.77,36a4,4,0,0,0-1.95-.83,5,5,0,0,0-5.14,2.69A5.32,5.32,0,0,0,19,36.62,5.57,5.57,0,0,0,15.32,39,4.84,4.84,0,0,1,12,37.3a4.76,4.76,0,0,1-.58-3.64c3.33-4.47,9.15-5.5,16-2.82ZM6.91,27.47a14.65,14.65,0,0,1,19.57,2.2c-6.65-2.23-12.3-1-15.66,3.45A4.3,4.3,0,0,1,6.4,30.51,2.69,2.69,0,0,1,6.91,27.47ZM5.41,28.7a4.1,4.1,0,0,0,.26,2.1,5,5,0,0,0,4.89,3.11h0a5.3,5.3,0,0,0,.78,3.86,5.56,5.56,0,0,0,3.84,2,4.87,4.87,0,0,1,.23,3.72,4.77,4.77,0,0,1-2.86,2.32C7,45.14,3.21,40.61,2.11,33.34v0A14.63,14.63,0,0,1,5.41,28.7Zm4,24.06A14.68,14.68,0,0,1,1.56,34.7C3,41.59,6.83,45.87,12.38,46.56a4.29,4.29,0,0,1-.05,5.12A2.69,2.69,0,0,1,9.41,52.76ZM16.9,54c-.47,0-.94.07-1.42.07a14.43,14.43,0,0,1-4.23-.63A4,4,0,0,0,13,52.17a5,5,0,0,0,.23-5.8,5.29,5.29,0,0,0,3-2.59,5.62,5.62,0,0,0-.21-4.32A4.86,4.86,0,0,1,19,37.4a4.77,4.77,0,0,1,3.44,1.32c2.21,5.12.19,10.68-5.56,15.27Zm1.48-.22c5.27-4.64,7-10.16,4.86-15.3A4.29,4.29,0,0,1,27.7,36a2.7,2.7,0,0,1,2.4,2c0,.47.07.94.07,1.42A14.72,14.72,0,0,1,18.38,53.79Z"></path>
</svg>
